<svg xmlns="http://www.w3.org/2000/svg" xmlns:xlink="http://www.w3.org/1999/xlink" contentStyleType="text/css" height="2068px" preserveAspectRatio="none" style="width:1278px;height:2068px;background:#FFFFFF;" version="1.1" viewBox="0 0 1278 2068" width="1278px" zoomAndPan="magnify"><title>Hybrid Client-Side Protocol Selection in Vehicular FL</title><defs/><g><text fill="#000000" font-family="sans-serif" font-size="14" font-weight="bold" lengthAdjust="spacing" textLength="352.3857" x="458.9829" y="29.5332">Hybrid Client-Side Protocol Selection in Vehicular FL</text><rect fill="none" height="258.6484" style="stroke:#000000;stroke-width:1.5;" width="1066.3818" x="194.9697" y="289.3281"/><rect fill="none" height="259.6484" style="stroke:#000000;stroke-width:1.5;" width="823.0923" x="10" y="1754.9297"/><line style="stroke:#181818;stroke-width:0.5;stroke-dasharray:5.0,5.0;" x1="57" x2="57" y1="76.2188" y2="2031.5781"/><line style="stroke:#181818;stroke-width:0.5;stroke-dasharray:5.0,5.0;" x1="306.9697" x2="306.9697" y1="76.2188" y2="2031.5781"/><line style="stroke:#181818;stroke-width:0.5;stroke-dasharray:5.0,5.0;" x1="613.1865" x2="613.1865" y1="76.2188" y2="2031.5781"/><line style="stroke:#181818;stroke-width:0.5;stroke-dasharray:5.0,5.0;" x1="788.0718" x2="788.0718" y1="76.2188" y2="2031.5781"/><line style="stroke:#181818;stroke-width:0.5;stroke-dasharray:5.0,5.0;" x1="1005.5625" x2="1005.5625" y1="76.2188" y2="2031.5781"/><rect fill="#E2E2F0" height="31.6094" rx="2.5" ry="2.5" style="stroke:#181818;stroke-width:0.5;" width="75.4619" x="20" y="43.6094"/><text fill="#000000" font-family="sans-serif" font-size="14" lengthAdjust="spacing" textLength="61.4619" x="27" y="65.1426">FL Server</text><rect fill="#E2E2F0" height="31.6094" rx="2.5" ry="2.5" style="stroke:#181818;stroke-width:0.5;" width="75.4619" x="20" y="2030.5781"/><text fill="#000000" font-family="sans-serif" font-size="14" lengthAdjust="spacing" textLength="61.4619" x="27" y="2052.1113">FL Server</text><rect fill="#E2E2F0" height="31.6094" rx="2.5" ry="2.5" style="stroke:#181818;stroke-width:0.5;" width="204.6201" x="204.9697" y="43.6094"/><text fill="#000000" font-family="sans-serif" font-size="14" lengthAdjust="spacing" textLength="190.6201" x="211.9697" y="65.1426">Communication Layer (Server)</text><rect fill="#E2E2F0" height="31.6094" rx="2.5" ry="2.5" style="stroke:#181818;stroke-width:0.5;" width="204.6201" x="204.9697" y="2030.5781"/><text fill="#000000" font-family="sans-serif" font-size="14" lengthAdjust="spacing" textLength="190.6201" x="211.9697" y="2052.1113">Communication Layer (Server)</text><rect fill="#E2E2F0" height="31.6094" rx="2.5" ry="2.5" style="stroke:#181818;stroke-width:0.5;" width="199.1787" x="514.1865" y="43.6094"/><text fill="#000000" font-family="sans-serif" font-size="14" lengthAdjust="spacing" textLength="185.1787" x="521.1865" y="65.1426">Communication Layer (Client)</text><rect fill="#E2E2F0" height="31.6094" rx="2.5" ry="2.5" style="stroke:#181818;stroke-width:0.5;" width="199.1787" x="514.1865" y="2030.5781"/><text fill="#000000" font-family="sans-serif" font-size="14" lengthAdjust="spacing" textLength="185.1787" x="521.1865" y="2052.1113">Communication Layer (Client)</text><rect fill="#E2E2F0" height="31.6094" rx="2.5" ry="2.5" style="stroke:#181818;stroke-width:0.5;" width="70.0205" x="753.0718" y="43.6094"/><text fill="#000000" font-family="sans-serif" font-size="14" lengthAdjust="spacing" textLength="56.0205" x="760.0718" y="65.1426">FL Client</text><rect fill="#E2E2F0" height="31.6094" rx="2.5" ry="2.5" style="stroke:#181818;stroke-width:0.5;" width="70.0205" x="753.0718" y="2030.5781"/><text fill="#000000" font-family="sans-serif" font-size="14" lengthAdjust="spacing" textLength="56.0205" x="760.0718" y="2052.1113">FL Client</text><rect fill="#E2E2F0" height="31.6094" rx="2.5" ry="2.5" style="stroke:#181818;stroke-width:0.5;" width="188.3096" x="911.5625" y="43.6094"/><text fill="#000000" font-family="sans-serif" font-size="14" lengthAdjust="spacing" textLength="174.3096" x="918.5625" y="65.1426">Decision Engine / ML Model</text><rect fill="#E2E2F0" height="31.6094" rx="2.5" ry="2.5" style="stroke:#181818;stroke-width:0.5;" width="188.3096" x="911.5625" y="2030.5781"/><text fill="#000000" font-family="sans-serif" font-size="14" lengthAdjust="spacing" textLength="174.3096" x="918.5625" y="2052.1113">Decision Engine / ML Model</text><rect fill="#EEEEEE" height="3" style="stroke:#EEEEEE;stroke-width:1.0;" width="1271.3516" x="0" y="107.3945"/><line style="stroke:#000000;stroke-width:1.0;" x1="0" x2="1271.3516" y1="107.3945" y2="107.3945"/><line style="stroke:#000000;stroke-width:1.0;" x1="0" x2="1271.3516" y1="110.3945" y2="110.3945"/><rect fill="#EEEEEE" height="24.3516" style="stroke:#000000;stroke-width:2.0;" width="136.0273" x="567.6621" y="96.2188"/><text fill="#000000" font-family="sans-serif" font-size="13" font-weight="bold" lengthAdjust="spacing" textLength="118.4155" x="573.6621" y="113.7139">FL Round Initiation</text><polygon fill="#181818" points="295.2798,165.2734,305.2798,169.2734,295.2798,173.2734,299.2798,169.2734" style="stroke:#181818;stroke-width:1.0;"/><line style="stroke:#181818;stroke-width:1.0;" x1="57.731" x2="301.2798" y1="169.2734" y2="169.2734"/><text fill="#000000" font-family="sans-serif" font-size="13" lengthAdjust="spacing" textLength="80.2217" x="64.731" y="148.0654">Initiate Round</text><text fill="#000000" font-family="sans-serif" font-size="13" lengthAdjust="spacing" textLength="106.9263" x="64.731" y="164.417">(Global Model v_r)</text><polygon fill="#181818" points="601.7759,195.625,611.7759,199.625,601.7759,203.625,605.7759,199.625" style="stroke:#181818;stroke-width:1.0;"/><line style="stroke:#181818;stroke-width:1.0;" x1="307.2798" x2="607.7759" y1="199.625" y2="199.625"/><text fill="#000000" font-family="sans-serif" font-size="13" lengthAdjust="spacing" textLength="130.7681" x="314.2798" y="194.7686">Transmit Global Model</text><polygon fill="#181818" points="776.082,225.9766,786.082,229.9766,776.082,233.9766,780.082,229.9766" style="stroke:#181818;stroke-width:1.0;"/><line style="stroke:#181818;stroke-width:1.0;" x1="613.7759" x2="782.082" y1="229.9766" y2="229.9766"/><text fill="#000000" font-family="sans-serif" font-size="13" lengthAdjust="spacing" textLength="120.6626" x="620.7759" y="225.1201">Deliver Global Model</text><rect fill="#EEEEEE" height="3" style="stroke:#EEEEEE;stroke-width:1.0;" width="1271.3516" x="0" y="259.1523"/><line style="stroke:#000000;stroke-width:1.0;" x1="0" x2="1271.3516" y1="259.1523" y2="259.1523"/><line style="stroke:#000000;stroke-width:1.0;" x1="0" x2="1271.3516" y1="262.1523" y2="262.1523"/><rect fill="#EEEEEE" height="24.3516" style="stroke:#000000;stroke-width:2.0;" width="112.2363" x="579.5576" y="247.9766"/><text fill="#000000" font-family="sans-serif" font-size="13" font-weight="bold" lengthAdjust="spacing" textLength="94.6245" x="585.5576" y="265.4717">Client Reaction</text><path d="M194.9697,289.3281 L255.1406,289.3281 L255.1406,297.6797 L245.1406,307.6797 L194.9697,307.6797 L194.9697,289.3281 " fill="#EEEEEE" style="stroke:#000000;stroke-width:1.5;"/><rect fill="none" height="258.6484" style="stroke:#000000;stroke-width:1.5;" width="1066.3818" x="194.9697" y="289.3281"/><text fill="#000000" font-family="sans-serif" font-size="13" font-weight="bold" lengthAdjust="spacing" textLength="15.1709" x="209.9697" y="303.8232">alt</text><text fill="#000000" font-family="sans-serif" font-size="11" font-weight="bold" lengthAdjust="spacing" textLength="86.7915" x="270.1406" y="302.7471">[Stable Network]</text><line style="stroke:#181818;stroke-width:1.0;" x1="788.082" x2="830.082" y1="330.0313" y2="330.0313"/><line style="stroke:#181818;stroke-width:1.0;" x1="830.082" x2="830.082" y1="330.0313" y2="343.0313"/><line style="stroke:#181818;stroke-width:1.0;" x1="789.082" x2="830.082" y1="343.0313" y2="343.0313"/><polygon fill="#181818" points="799.082,339.0313,789.082,343.0313,799.082,347.0313,795.082,343.0313" style="stroke:#181818;stroke-width:1.0;"/><text fill="#000000" font-family="sans-serif" font-size="13" lengthAdjust="spacing" textLength="119.9517" x="795.082" y="325.1748">Accept Global Model</text><line style="stroke:#000000;stroke-width:1.0;stroke-dasharray:2.0,2.0;" x1="194.9697" x2="1261.3516" y1="352.0313" y2="352.0313"/><text fill="#000000" font-family="sans-serif" font-size="11" font-weight="bold" lengthAdjust="spacing" textLength="100.2354" x="199.9697" y="363.4502">[Unstable Network]</text><polygon fill="#181818" points="993.7173,385.2188,1003.7173,389.2188,993.7173,393.2188,997.7173,389.2188" style="stroke:#181818;stroke-width:1.0;"/><line style="stroke:#181818;stroke-width:1.0;" x1="788.082" x2="999.7173" y1="389.2188" y2="389.2188"/><text fill="#000000" font-family="sans-serif" font-size="13" lengthAdjust="spacing" textLength="135.8462" x="795.082" y="384.3623">Evaluate Network State</text><line style="stroke:#181818;stroke-width:1.0;" x1="1005.7173" x2="1047.7173" y1="419.5703" y2="419.5703"/><line style="stroke:#181818;stroke-width:1.0;" x1="1047.7173" x2="1047.7173" y1="419.5703" y2="432.5703"/><line style="stroke:#181818;stroke-width:1.0;" x1="1006.7173" x2="1047.7173" y1="432.5703" y2="432.5703"/><polygon fill="#181818" points="1016.7173,428.5703,1006.7173,432.5703,1016.7173,436.5703,1012.7173,432.5703" style="stroke:#181818;stroke-width:1.0;"/><text fill="#000000" font-family="sans-serif" font-size="13" lengthAdjust="spacing" textLength="236.6343" x="1012.7173" y="414.7139">Select Preferred Protocol + Compression</text><polygon fill="#181818" points="799.082,458.9219,789.082,462.9219,799.082,466.9219,795.082,462.9219" style="stroke:#181818;stroke-width:1.0;"/><line style="stroke:#181818;stroke-width:1.0;stroke-dasharray:2.0,2.0;" x1="793.082" x2="1004.7173" y1="462.9219" y2="462.9219"/><text fill="#000000" font-family="sans-serif" font-size="13" lengthAdjust="spacing" textLength="193.6353" x="805.082" y="458.0654">Protocol &amp; Compression Decision</text><polygon fill="#181818" points="624.7759,505.625,614.7759,509.625,624.7759,513.625,620.7759,509.625" style="stroke:#181818;stroke-width:1.0;"/><line style="stroke:#181818;stroke-width:1.0;" x1="618.7759" x2="787.082" y1="509.625" y2="509.625"/><text fill="#000000" font-family="sans-serif" font-size="13" lengthAdjust="spacing" textLength="114.1816" x="630.7759" y="488.417">Send Status Packet</text><text fill="#000000" font-family="sans-serif" font-size="13" lengthAdjust="spacing" textLength="123.5508" x="630.7759" y="504.7686">(Protocol Preference)</text><polygon fill="#181818" points="318.2798,535.9766,308.2798,539.9766,318.2798,543.9766,314.2798,539.9766" style="stroke:#181818;stroke-width:1.0;"/><line style="stroke:#181818;stroke-width:1.0;" x1="312.2798" x2="612.7759" y1="539.9766" y2="539.9766"/><text fill="#000000" font-family="sans-serif" font-size="13" lengthAdjust="spacing" textLength="80.209" x="324.2798" y="535.1201">Status Packet</text><rect fill="#EEEEEE" height="3" style="stroke:#EEEEEE;stroke-width:1.0;" width="1271.3516" x="0" y="576.1523"/><line style="stroke:#000000;stroke-width:1.0;" x1="0" x2="1271.3516" y1="576.1523" y2="576.1523"/><line style="stroke:#000000;stroke-width:1.0;" x1="0" x2="1271.3516" y1="579.1523" y2="579.1523"/><rect fill="#EEEEEE" height="24.3516" style="stroke:#000000;stroke-width:2.0;" width="129.5845" x="570.8835" y="564.9766"/><text fill="#000000" font-family="sans-serif" font-size="13" font-weight="bold" lengthAdjust="spacing" textLength="111.9727" x="576.8835" y="582.4717">Server Adaptation</text><polygon fill="#181818" points="68.731,617.6797,58.731,621.6797,68.731,625.6797,64.731,621.6797" style="stroke:#181818;stroke-width:1.0;"/><line style="stroke:#181818;stroke-width:1.0;" x1="62.731" x2="306.2798" y1="621.6797" y2="621.6797"/><text fill="#000000" font-family="sans-serif" font-size="13" lengthAdjust="spacing" textLength="124.2744" x="74.731" y="616.8232">Deliver Status Packet</text><line style="stroke:#181818;stroke-width:1.0;" x1="57.731" x2="99.731" y1="652.0313" y2="652.0313"/><line style="stroke:#181818;stroke-width:1.0;" x1="99.731" x2="99.731" y1="652.0313" y2="665.0313"/><line style="stroke:#181818;stroke-width:1.0;" x1="58.731" x2="99.731" y1="665.0313" y2="665.0313"/><polygon fill="#181818" points="68.731,661.0313,58.731,665.0313,68.731,669.0313,64.731,665.0313" style="stroke:#181818;stroke-width:1.0;"/><text fill="#000000" font-family="sans-serif" font-size="13" lengthAdjust="spacing" textLength="197.2598" x="64.731" y="647.1748">Record Client Protocol Preference</text><polygon fill="#181818" points="295.2798,707.7344,305.2798,711.7344,295.2798,715.7344,299.2798,711.7344" style="stroke:#181818;stroke-width:1.0;"/><line style="stroke:#181818;stroke-width:1.0;" x1="57.731" x2="301.2798" y1="711.7344" y2="711.7344"/><text fill="#000000" font-family="sans-serif" font-size="13" lengthAdjust="spacing" textLength="192.1753" x="64.731" y="690.5264">Retry Global Model Transmission</text><text fill="#000000" font-family="sans-serif" font-size="13" lengthAdjust="spacing" textLength="83.0845" x="64.731" y="706.8779">(up to 3 times)</text><polygon fill="#181818" points="601.7759,738.0859,611.7759,742.0859,601.7759,746.0859,605.7759,742.0859" style="stroke:#181818;stroke-width:1.0;"/><line style="stroke:#181818;stroke-width:1.0;" x1="307.2798" x2="607.7759" y1="742.0859" y2="742.0859"/><text fill="#000000" font-family="sans-serif" font-size="13" lengthAdjust="spacing" textLength="282.4961" x="314.2798" y="737.2295">Transmit Global Model (Client-Selected Protocol)</text><polygon fill="#181818" points="776.082,768.4375,786.082,772.4375,776.082,776.4375,780.082,772.4375" style="stroke:#181818;stroke-width:1.0;"/><line style="stroke:#181818;stroke-width:1.0;" x1="613.7759" x2="782.082" y1="772.4375" y2="772.4375"/><text fill="#000000" font-family="sans-serif" font-size="13" lengthAdjust="spacing" textLength="120.6626" x="620.7759" y="767.5811">Deliver Global Model</text><rect fill="#EEEEEE" height="3" style="stroke:#EEEEEE;stroke-width:1.0;" width="1271.3516" x="0" y="801.6133"/><line style="stroke:#000000;stroke-width:1.0;" x1="0" x2="1271.3516" y1="801.6133" y2="801.6133"/><line style="stroke:#000000;stroke-width:1.0;" x1="0" x2="1271.3516" y1="804.6133" y2="804.6133"/><rect fill="#EEEEEE" height="24.3516" style="stroke:#000000;stroke-width:2.0;" width="106.4536" x="582.449" y="790.4375"/><text fill="#000000" font-family="sans-serif" font-size="13" font-weight="bold" lengthAdjust="spacing" textLength="88.8418" x="588.449" y="807.9326">Local Training</text><line style="stroke:#181818;stroke-width:1.0;" x1="788.082" x2="830.082" y1="847.1406" y2="847.1406"/><line style="stroke:#181818;stroke-width:1.0;" x1="830.082" x2="830.082" y1="847.1406" y2="860.1406"/><line style="stroke:#181818;stroke-width:1.0;" x1="789.082" x2="830.082" y1="860.1406" y2="860.1406"/><polygon fill="#181818" points="799.082,856.1406,789.082,860.1406,799.082,864.1406,795.082,860.1406" style="stroke:#181818;stroke-width:1.0;"/><text fill="#000000" font-family="sans-serif" font-size="13" lengthAdjust="spacing" textLength="103.3271" x="795.082" y="842.2842">Train Local Model</text><rect fill="#EEEEEE" height="3" style="stroke:#EEEEEE;stroke-width:1.0;" width="1271.3516" x="0" y="889.3164"/><line style="stroke:#000000;stroke-width:1.0;" x1="0" x2="1271.3516" y1="889.3164" y2="889.3164"/><line style="stroke:#000000;stroke-width:1.0;" x1="0" x2="1271.3516" y1="892.3164" y2="892.3164"/><rect fill="#EEEEEE" height="24.3516" style="stroke:#000000;stroke-width:2.0;" width="146.1709" x="562.5903" y="878.1406"/><text fill="#000000" font-family="sans-serif" font-size="13" font-weight="bold" lengthAdjust="spacing" textLength="128.5591" x="568.5903" y="895.6357">Uplink Model Update</text><polygon fill="#181818" points="993.7173,930.8438,1003.7173,934.8438,993.7173,938.8438,997.7173,934.8438" style="stroke:#181818;stroke-width:1.0;"/><line style="stroke:#181818;stroke-width:1.0;" x1="788.082" x2="999.7173" y1="934.8438" y2="934.8438"/><text fill="#000000" font-family="sans-serif" font-size="13" lengthAdjust="spacing" textLength="99.0044" x="795.082" y="929.9873">Evaluate Context</text><line style="stroke:#181818;stroke-width:1.0;" x1="1005.7173" x2="1047.7173" y1="965.1953" y2="965.1953"/><line style="stroke:#181818;stroke-width:1.0;" x1="1047.7173" x2="1047.7173" y1="965.1953" y2="978.1953"/><line style="stroke:#181818;stroke-width:1.0;" x1="1006.7173" x2="1047.7173" y1="978.1953" y2="978.1953"/><polygon fill="#181818" points="1016.7173,974.1953,1006.7173,978.1953,1016.7173,982.1953,1012.7173,978.1953" style="stroke:#181818;stroke-width:1.0;"/><text fill="#000000" font-family="sans-serif" font-size="13" lengthAdjust="spacing" textLength="213.5225" x="1012.7173" y="960.3389">Select Protocol + Compression Level</text><polygon fill="#181818" points="799.082,1004.5469,789.082,1008.5469,799.082,1012.5469,795.082,1008.5469" style="stroke:#181818;stroke-width:1.0;"/><line style="stroke:#181818;stroke-width:1.0;stroke-dasharray:2.0,2.0;" x1="793.082" x2="1004.7173" y1="1008.5469" y2="1008.5469"/><text fill="#000000" font-family="sans-serif" font-size="13" lengthAdjust="spacing" textLength="130.7617" x="805.082" y="1003.6904">Transmission Decision</text><polygon fill="#181818" points="624.7759,1034.8984,614.7759,1038.8984,624.7759,1042.8984,620.7759,1038.8984" style="stroke:#181818;stroke-width:1.0;"/><line style="stroke:#181818;stroke-width:1.0;" x1="618.7759" x2="787.082" y1="1038.8984" y2="1038.8984"/><text fill="#000000" font-family="sans-serif" font-size="13" lengthAdjust="spacing" textLength="110.5825" x="630.7759" y="1034.042">Send Local Update</text><polygon fill="#181818" points="318.2798,1065.25,308.2798,1069.25,318.2798,1073.25,314.2798,1069.25" style="stroke:#181818;stroke-width:1.0;"/><line style="stroke:#181818;stroke-width:1.0;" x1="312.2798" x2="612.7759" y1="1069.25" y2="1069.25"/><text fill="#000000" font-family="sans-serif" font-size="13" lengthAdjust="spacing" textLength="197.2725" x="324.2798" y="1064.3936">Model Update (Protocol Identified)</text><polygon fill="#181818" points="68.731,1095.6016,58.731,1099.6016,68.731,1103.6016,64.731,1099.6016" style="stroke:#181818;stroke-width:1.0;"/><line style="stroke:#181818;stroke-width:1.0;" x1="62.731" x2="306.2798" y1="1099.6016" y2="1099.6016"/><text fill="#000000" font-family="sans-serif" font-size="13" lengthAdjust="spacing" textLength="120.6753" x="74.731" y="1094.7451">Deliver Local Update</text><rect fill="#EEEEEE" height="3" style="stroke:#EEEEEE;stroke-width:1.0;" width="1271.3516" x="0" y="1128.7773"/><line style="stroke:#000000;stroke-width:1.0;" x1="0" x2="1271.3516" y1="1128.7773" y2="1128.7773"/><line style="stroke:#000000;stroke-width:1.0;" x1="0" x2="1271.3516" y1="1131.7773" y2="1131.7773"/><rect fill="#EEEEEE" height="24.3516" style="stroke:#000000;stroke-width:2.0;" width="138.2554" x="566.5481" y="1117.6016"/><text fill="#000000" font-family="sans-serif" font-size="13" font-weight="bold" lengthAdjust="spacing" textLength="120.6436" x="572.5481" y="1135.0967">Server Aggregation</text><line style="stroke:#181818;stroke-width:1.0;" x1="57.731" x2="99.731" y1="1190.6563" y2="1190.6563"/><line style="stroke:#181818;stroke-width:1.0;" x1="99.731" x2="99.731" y1="1190.6563" y2="1203.6563"/><line style="stroke:#181818;stroke-width:1.0;" x1="58.731" x2="99.731" y1="1203.6563" y2="1203.6563"/><polygon fill="#181818" points="68.731,1199.6563,58.731,1203.6563,68.731,1207.6563,64.731,1203.6563" style="stroke:#181818;stroke-width:1.0;"/><text fill="#000000" font-family="sans-serif" font-size="13" lengthAdjust="spacing" textLength="112.0234" x="64.731" y="1169.4482">Aggregate Updates</text><text fill="#000000" font-family="sans-serif" font-size="13" lengthAdjust="spacing" textLength="125.0044" x="64.731" y="1185.7998">(Async, soft deadline)</text><rect fill="#EEEEEE" height="3" style="stroke:#EEEEEE;stroke-width:1.0;" width="1271.3516" x="0" y="1232.832"/><line style="stroke:#000000;stroke-width:1.0;" x1="0" x2="1271.3516" y1="1232.832" y2="1232.832"/><line style="stroke:#000000;stroke-width:1.0;" x1="0" x2="1271.3516" y1="1235.832" y2="1235.832"/><rect fill="#EEEEEE" height="24.3516" style="stroke:#000000;stroke-width:2.0;" width="192.3945" x="539.4785" y="1221.6563"/><text fill="#000000" font-family="sans-serif" font-size="13" font-weight="bold" lengthAdjust="spacing" textLength="174.7827" x="545.4785" y="1239.1514">Downlink Aggregated Model</text><polygon fill="#181818" points="295.2798,1274.3594,305.2798,1278.3594,295.2798,1282.3594,299.2798,1278.3594" style="stroke:#181818;stroke-width:1.0;"/><line style="stroke:#181818;stroke-width:1.0;" x1="57.731" x2="301.2798" y1="1278.3594" y2="1278.3594"/><text fill="#000000" font-family="sans-serif" font-size="13" lengthAdjust="spacing" textLength="140.2134" x="64.731" y="1273.5029">Send Aggregated Model</text><polygon fill="#181818" points="601.7759,1304.7109,611.7759,1308.7109,601.7759,1312.7109,605.7759,1308.7109" style="stroke:#181818;stroke-width:1.0;"/><line style="stroke:#181818;stroke-width:1.0;" x1="307.2798" x2="607.7759" y1="1308.7109" y2="1308.7109"/><text fill="#000000" font-family="sans-serif" font-size="13" lengthAdjust="spacing" textLength="160.4116" x="314.2798" y="1303.8545">Transmit Aggregated Model</text><polygon fill="#181818" points="776.082,1335.0625,786.082,1339.0625,776.082,1343.0625,780.082,1339.0625" style="stroke:#181818;stroke-width:1.0;"/><line style="stroke:#181818;stroke-width:1.0;" x1="613.7759" x2="782.082" y1="1339.0625" y2="1339.0625"/><text fill="#000000" font-family="sans-serif" font-size="13" lengthAdjust="spacing" textLength="150.3062" x="620.7759" y="1334.2061">Deliver Aggregated Model</text><rect fill="#EEEEEE" height="3" style="stroke:#EEEEEE;stroke-width:1.0;" width="1271.3516" x="0" y="1368.2383"/><line style="stroke:#000000;stroke-width:1.0;" x1="0" x2="1271.3516" y1="1368.2383" y2="1368.2383"/><line style="stroke:#000000;stroke-width:1.0;" x1="0" x2="1271.3516" y1="1371.2383" y2="1371.2383"/><rect fill="#EEEEEE" height="24.3516" style="stroke:#000000;stroke-width:2.0;" width="168.5718" x="551.3899" y="1357.0625"/><text fill="#000000" font-family="sans-serif" font-size="13" font-weight="bold" lengthAdjust="spacing" textLength="150.96" x="557.3899" y="1374.5576">Global Model Evaluation</text><polygon fill="#181818" points="295.2798,1409.7656,305.2798,1413.7656,295.2798,1417.7656,299.2798,1413.7656" style="stroke:#181818;stroke-width:1.0;"/><line style="stroke:#181818;stroke-width:1.0;" x1="57.731" x2="301.2798" y1="1413.7656" y2="1413.7656"/><text fill="#000000" font-family="sans-serif" font-size="13" lengthAdjust="spacing" textLength="179.2261" x="64.731" y="1408.9092">Send notification for Evaluation</text><polygon fill="#181818" points="601.7759,1440.1172,611.7759,1444.1172,601.7759,1448.1172,605.7759,1444.1172" style="stroke:#181818;stroke-width:1.0;"/><line style="stroke:#181818;stroke-width:1.0;" x1="307.2798" x2="607.7759" y1="1444.1172" y2="1444.1172"/><text fill="#000000" font-family="sans-serif" font-size="13" lengthAdjust="spacing" textLength="116.3208" x="314.2798" y="1439.2607">Transmit notification</text><polygon fill="#181818" points="776.082,1470.4688,786.082,1474.4688,776.082,1478.4688,780.082,1474.4688" style="stroke:#181818;stroke-width:1.0;"/><line style="stroke:#181818;stroke-width:1.0;" x1="613.7759" x2="782.082" y1="1474.4688" y2="1474.4688"/><text fill="#000000" font-family="sans-serif" font-size="13" lengthAdjust="spacing" textLength="31.0718" x="620.7759" y="1469.6123">notify</text><line style="stroke:#181818;stroke-width:1.0;" x1="788.082" x2="830.082" y1="1504.8203" y2="1504.8203"/><line style="stroke:#181818;stroke-width:1.0;" x1="830.082" x2="830.082" y1="1504.8203" y2="1517.8203"/><line style="stroke:#181818;stroke-width:1.0;" x1="789.082" x2="830.082" y1="1517.8203" y2="1517.8203"/><polygon fill="#181818" points="799.082,1513.8203,789.082,1517.8203,799.082,1521.8203,795.082,1517.8203" style="stroke:#181818;stroke-width:1.0;"/><text fill="#000000" font-family="sans-serif" font-size="13" lengthAdjust="spacing" textLength="130.7998" x="795.082" y="1499.9639">Evaluate Global Model</text><polygon fill="#181818" points="624.7759,1544.1719,614.7759,1548.1719,624.7759,1552.1719,620.7759,1548.1719" style="stroke:#181818;stroke-width:1.0;"/><line style="stroke:#181818;stroke-width:1.0;stroke-dasharray:2.0,2.0;" x1="618.7759" x2="787.082" y1="1548.1719" y2="1548.1719"/><text fill="#000000" font-family="sans-serif" font-size="13" lengthAdjust="spacing" textLength="111.2617" x="630.7759" y="1543.3154">Send metric results</text><polygon fill="#181818" points="318.2798,1574.5234,308.2798,1578.5234,318.2798,1582.5234,314.2798,1578.5234" style="stroke:#181818;stroke-width:1.0;"/><line style="stroke:#181818;stroke-width:1.0;stroke-dasharray:2.0,2.0;" x1="312.2798" x2="612.7759" y1="1578.5234" y2="1578.5234"/><text fill="#000000" font-family="sans-serif" font-size="13" lengthAdjust="spacing" textLength="111.2617" x="324.2798" y="1573.667">Send metric results</text><polygon fill="#181818" points="68.731,1604.875,58.731,1608.875,68.731,1612.875,64.731,1608.875" style="stroke:#181818;stroke-width:1.0;"/><line style="stroke:#181818;stroke-width:1.0;stroke-dasharray:2.0,2.0;" x1="62.731" x2="306.2798" y1="1608.875" y2="1608.875"/><text fill="#000000" font-family="sans-serif" font-size="13" lengthAdjust="spacing" textLength="127.8672" x="74.731" y="1604.0186">Receive metric results</text><rect fill="#EEEEEE" height="3" style="stroke:#EEEEEE;stroke-width:1.0;" width="1271.3516" x="0" y="1638.0508"/><line style="stroke:#000000;stroke-width:1.0;" x1="0" x2="1271.3516" y1="1638.0508" y2="1638.0508"/><line style="stroke:#000000;stroke-width:1.0;" x1="0" x2="1271.3516" y1="1641.0508" y2="1641.0508"/><rect fill="#EEEEEE" height="24.3516" style="stroke:#000000;stroke-width:2.0;" width="326.8252" x="472.2632" y="1626.875"/><text fill="#000000" font-family="sans-serif" font-size="13" font-weight="bold" lengthAdjust="spacing" textLength="309.2134" x="478.2632" y="1644.3701">Aggregate the metrics and check for convergence</text><line style="stroke:#181818;stroke-width:1.0;stroke-dasharray:2.0,2.0;" x1="57.731" x2="99.731" y1="1683.5781" y2="1683.5781"/><line style="stroke:#181818;stroke-width:1.0;stroke-dasharray:2.0,2.0;" x1="99.731" x2="99.731" y1="1683.5781" y2="1696.5781"/><line style="stroke:#181818;stroke-width:1.0;stroke-dasharray:2.0,2.0;" x1="58.731" x2="99.731" y1="1696.5781" y2="1696.5781"/><polygon fill="#181818" points="68.731,1692.5781,58.731,1696.5781,68.731,1700.5781,64.731,1696.5781" style="stroke:#181818;stroke-width:1.0;"/><text fill="#000000" font-family="sans-serif" font-size="13" lengthAdjust="spacing" textLength="235.5488" x="64.731" y="1678.7217">Aggregate the metrics from all the clients</text><line style="stroke:#181818;stroke-width:1.0;stroke-dasharray:2.0,2.0;" x1="57.731" x2="99.731" y1="1726.9297" y2="1726.9297"/><line style="stroke:#181818;stroke-width:1.0;stroke-dasharray:2.0,2.0;" x1="99.731" x2="99.731" y1="1726.9297" y2="1739.9297"/><line style="stroke:#181818;stroke-width:1.0;stroke-dasharray:2.0,2.0;" x1="58.731" x2="99.731" y1="1739.9297" y2="1739.9297"/><polygon fill="#181818" points="68.731,1735.9297,58.731,1739.9297,68.731,1743.9297,64.731,1739.9297" style="stroke:#181818;stroke-width:1.0;"/><text fill="#000000" font-family="sans-serif" font-size="13" lengthAdjust="spacing" textLength="133.6816" x="64.731" y="1722.0732">Check for convergence</text><path d="M10,1754.9297 L70.1709,1754.9297 L70.1709,1763.2813 L60.1709,1773.2813 L10,1773.2813 L10,1754.9297 " fill="#EEEEEE" style="stroke:#000000;stroke-width:1.5;"/><rect fill="none" height="259.6484" style="stroke:#000000;stroke-width:1.5;" width="823.0923" x="10" y="1754.9297"/><text fill="#000000" font-family="sans-serif" font-size="13" font-weight="bold" lengthAdjust="spacing" textLength="15.1709" x="25" y="1769.4248">alt</text><text fill="#000000" font-family="sans-serif" font-size="11" font-weight="bold" lengthAdjust="spacing" textLength="99.6123" x="85.1709" y="1768.3486">[Model Converged]</text><line style="stroke:#181818;stroke-width:1.0;" x1="57.731" x2="99.731" y1="1795.6328" y2="1795.6328"/><line style="stroke:#181818;stroke-width:1.0;" x1="99.731" x2="99.731" y1="1795.6328" y2="1808.6328"/><line style="stroke:#181818;stroke-width:1.0;" x1="58.731" x2="99.731" y1="1808.6328" y2="1808.6328"/><polygon fill="#181818" points="68.731,1804.6328,58.731,1808.6328,68.731,1812.6328,64.731,1808.6328" style="stroke:#181818;stroke-width:1.0;"/><text fill="#000000" font-family="sans-serif" font-size="13" lengthAdjust="spacing" textLength="132.228" x="64.731" y="1790.7764">FL Training Completed</text><polygon fill="#181818" points="295.2798,1834.9844,305.2798,1838.9844,295.2798,1842.9844,299.2798,1838.9844" style="stroke:#181818;stroke-width:1.0;"/><line style="stroke:#181818;stroke-width:1.0;" x1="57.731" x2="301.2798" y1="1838.9844" y2="1838.9844"/><text fill="#000000" font-family="sans-serif" font-size="13" lengthAdjust="spacing" textLength="167.6479" x="64.731" y="1834.1279">Send Completion Notification</text><polygon fill="#181818" points="601.7759,1865.3359,611.7759,1869.3359,601.7759,1873.3359,605.7759,1869.3359" style="stroke:#181818;stroke-width:1.0;"/><line style="stroke:#181818;stroke-width:1.0;" x1="307.2798" x2="607.7759" y1="1869.3359" y2="1869.3359"/><text fill="#000000" font-family="sans-serif" font-size="13" lengthAdjust="spacing" textLength="187.8462" x="314.2798" y="1864.4795">Transmit Completion Notification</text><polygon fill="#181818" points="776.082,1895.6875,786.082,1899.6875,776.082,1903.6875,780.082,1899.6875" style="stroke:#181818;stroke-width:1.0;"/><line style="stroke:#181818;stroke-width:1.0;" x1="613.7759" x2="782.082" y1="1899.6875" y2="1899.6875"/><text fill="#000000" font-family="sans-serif" font-size="13" lengthAdjust="spacing" textLength="121.3799" x="620.7759" y="1894.8311">Notify FL Completion</text><line style="stroke:#000000;stroke-width:1.0;stroke-dasharray:2.0,2.0;" x1="10" x2="833.0923" y1="1908.6875" y2="1908.6875"/><text fill="#000000" font-family="sans-serif" font-size="11" font-weight="bold" lengthAdjust="spacing" textLength="120.9946" x="15" y="1920.1064">[Model Not Converged]</text><polygon fill="#181818" points="295.2798,1941.875,305.2798,1945.875,295.2798,1949.875,299.2798,1945.875" style="stroke:#181818;stroke-width:1.0;"/><line style="stroke:#181818;stroke-width:1.0;" x1="57.731" x2="301.2798" y1="1945.875" y2="1945.875"/><text fill="#000000" font-family="sans-serif" font-size="13" lengthAdjust="spacing" textLength="105.4917" x="64.731" y="1941.0186">Notify Next Round</text><polygon fill="#181818" points="601.7759,1972.2266,611.7759,1976.2266,601.7759,1980.2266,605.7759,1976.2266" style="stroke:#181818;stroke-width:1.0;"/><line style="stroke:#181818;stroke-width:1.0;" x1="307.2798" x2="607.7759" y1="1976.2266" y2="1976.2266"/><text fill="#000000" font-family="sans-serif" font-size="13" lengthAdjust="spacing" textLength="180.6353" x="314.2798" y="1971.3701">Deliver Next Round Notification</text><polygon fill="#181818" points="776.082,2002.5781,786.082,2006.5781,776.082,2010.5781,780.082,2006.5781" style="stroke:#181818;stroke-width:1.0;"/><line style="stroke:#181818;stroke-width:1.0;" x1="613.7759" x2="782.082" y1="2006.5781" y2="2006.5781"/><text fill="#000000" font-family="sans-serif" font-size="13" lengthAdjust="spacing" textLength="105.4917" x="620.7759" y="2001.7217">Notify Next Round</text><!--SRC=[bLPDRnen5BplhtZAeGfgenvwgqIbQ25j9195qFHKgJBU1x4mziesfFpx-dDt3OOcd12UDnw_6JzZcE48FmvBnHgeEKDXRXQiGNXIqaWgEIoG8pLC2c02Vk4BepjE5DpDggeboZ3AMY8CNDtDB5JjKLq1qV5hZgZbThiJZ1BFDYC7L70TW2DVv02BDzG4dNrDVQ8a80B0VyqH4wHCEyAfM3E1y1aUPl0W6-I-P3Ajgl7O7X7cSYSQk1VCiA1WFAwg81bklWN1y3K1CE1_Y-llN2u93vIm_wD6LO36cjhM_5H4w2qpCCHMOTN1l6oBco1dRhiCvkH5n1m9xQGHRc1XoD9w-eZcLQfD1VOJeKFQMqgnFTeSkKPu5leImMHgYwTxmdVkl17ZzZJeaNOzeK9oR99mXKfXqsVge-j2gr0x4xgoeRmE-c48XMJSyQbYJnTetN9QTXgU2DsWiLvqL4482egZKD_rEjgOLLQMo_SvsdtRaDRq8UZyZCkzKJbB7vOEE4SgLRfjK91NIDWSZJfaRgK0-SROO-vQC1A-W65Rr6_DMxfBDy6hWKUZzqHn9YdnWfXWOXtwSnevlnwnVUrpovdOH3dFRUDYbHFaaQkbCFZNLAMWbU85CzpRhOu3DknU7wipaGgQWxZg93QPz3vkzusbOYk6pUX2MZBgOTpMQuNhqj3fA184OxcsARZL1q4_WPOh0msInlRMfjtnJkIhy9tkofgel3pJ_C6FiHTYLOIMytC2TVgoM4QtpqzShqv8rz_uDgoa6fHT43giAeZqouTIVhi8vXCx0jDMKTlMNbX6mOPmnurE-wGJd0SjF6WuAz3sx1Zf6jRRRruIG0EnjFG5wSOtX4fXUTPkg6IDBCTeoBDISWk4S_yZzMVKnVAwj5buYOANTVovyKEta6FxpdQZmrrSZkO4dFaUGSxrnw6PQQYNVVzVLHu33pauRNrTU233gUpwsPCbiP7ZqOwhyC-Wh31TYnxt3e43SlTW_GC0]--></g></svg>